<svg xmlns="http://www.w3.org/2000/svg" viewBox="0 0 1200 675" role="img" aria-labelledby="t d"><title id="t">Anadolu Hisarı Sahili rota illüstrasyonu</title><desc id="d">Boğazın dar kesimi, tarihî hisar silueti, akıntı çizgileri ve aktif iskele sınırını anlatan özgün Olta Atlası görseli.</desc><defs><linearGradient id="sky" x1="0" y1="0" x2="0" y2="1"><stop stop-color="#d9eef1"/><stop offset="1" stop-color="#f8f0df"/></linearGradient><linearGradient id="sea" x1="0" y1="0" x2="1" y2="1"><stop stop-color="#23788a"/><stop offset="1" stop-color="#092f3b"/></linearGradient></defs><rect width="1200" height="675" fill="url(#sky)"/><path d="M0 295c245-18 345 14 528 23 210 10 381-24 672-7v364H0z" fill="url(#sea)"/><path d="M0 390c166-29 327 27 509 1 209-30 395 31 691-12" fill="none" stroke="#c6e8eb" stroke-width="8" opacity=".68"/><path d="M0 456c199-20 342 27 522 5 225-28 393 20 678-2" fill="none" stroke="#76b8c1" stroke-width="10" opacity=".55"/><path d="M74 302l190-82 135 48 118-38 153 72z" fill="#244950"/><g fill="#d9bc87" stroke="#856d4e" stroke-width="3"><rect x="170" y="205" width="92" height="95"/><rect x="274" y="233" width="70" height="67"/><path d="M162 205h108l-20-30h-68z"/><rect x="193" y="236" width="18" height="31" fill="#29424a"/><rect x="226" y="236" width="18" height="31" fill="#29424a"/></g><path d="M790 309h252v14H790zM826 323v55m171-55v55" stroke="#edf4ed" stroke-width="10"/><circle cx="906" cy="287" r="12" fill="#f5b34c"/><path d="M906 299v10" stroke="#f5b34c" stroke-width="8"/><path d="M1070 104c-80 48-140 108-177 192" fill="none" stroke="#f5b34c" stroke-width="5" stroke-linecap="round"/><path d="M1067 103c28 16 37 42 27 65" fill="none" stroke="#0a3340" stroke-width="7" stroke-linecap="round"/><text x="70" y="90" font-family="system-ui,sans-serif" font-size="44" font-weight="800" fill="#0a3340">Anadolu Hisarı Sahili</text><text x="72" y="136" font-family="system-ui,sans-serif" font-size="24" font-weight="650" fill="#42666d">Boğazın dar kesimi · Beykoz</text><g transform="translate(72 548)"><rect width="500" height="72" rx="18" fill="#f7fbf8" opacity=".93"/><circle cx="42" cy="36" r="18" fill="#f5b34c"/><path d="M31 36h22m-11-11v22" stroke="#0a3340" stroke-width="5"/><text x="78" y="31" font-family="system-ui,sans-serif" font-size="18" font-weight="800" fill="#0a3340">Güçlü akıntı ve aktif iskele ayrımı</text><text x="78" y="53" font-family="system-ui,sans-serif" font-size="15" fill="#49666b">Koordinat yalnız genel kamusal kıyı bağlamını gösterir.</text></g></svg>