<svg xmlns="http://www.w3.org/2000/svg" viewBox="0 0 1200 630" role="img" aria-labelledby="t d"><title id="t">Bayramhacılı Barajı Amatör Balıkçılık Alanı</title><desc id="d">Kırsal rezervuar kıyısı ile ticari ve amatör kullanım ayrımını anlatan özgün Olta Atlası çizimi.</desc><rect width="1200" height="630" fill="#eef2ea"/><path d="M0 425C180 355 325 435 500 375C680 315 835 405 1200 325V630H0Z" fill="#9bc7d0"/><path d="M0 310C190 265 350 300 520 255C720 205 915 230 1200 175V325C865 410 690 330 500 390C325 445 170 370 0 440Z" fill="#d3c39b"/><path d="M145 310C275 285 400 295 530 255" fill="none" stroke="#60725d" stroke-width="16" stroke-linecap="round"/><path d="M535 235l20 35-20 35-20-35z" fill="#bd513e"/><text x="75" y="95" font-family="system-ui,sans-serif" font-size="50" font-weight="700" fill="#24434a">Bayramhacılı Barajı</text><text x="75" y="150" font-family="system-ui,sans-serif" font-size="29" fill="#50656a">Kocasinan · amatör kıyı planı</text><text x="75" y="560" font-family="system-ui,sans-serif" font-size="24" fill="#50656a">Ağ, tekne rampası ve ticari çalışma alanları rota dışıdır.</text></svg>