<svg xmlns="http://www.w3.org/2000/svg" viewBox="0 0 1200 630" role="img" aria-labelledby="t d"><title id="t">Hirfanlı Barajı Boztepe rota görseli</title><desc id="d">Evren Boztepe resmî amatör balıkçılık alanı için özgün açık kıyı illüstrasyonu.</desc><rect width="1200" height="630" fill="#edf1e8"/><path d="M0 370c210 10 310 95 500 65 175-28 285-120 435-92 100 19 165 65 265 72v215H0z" fill="#75aab2"/><path d="M0 505c240-38 365-2 540-8 190-7 330-70 660-30v163H0z" fill="#307983"/><path d="M0 380l185-75 195 78-120 82-175-20z" fill="#bca470"/><path d="M870 310l95 55-95 55z" fill="#f4f0df" opacity=".8"/><circle cx="500" cy="441" r="12" fill="#bd4b39"/><circle cx="845" cy="370" r="12" fill="#bd4b39"/><path d="M500 441Q665 330 845 370" fill="none" stroke="#bd4b39" stroke-width="8" stroke-dasharray="14 12"/><text x="70" y="105" font-family="system-ui,sans-serif" font-size="48" font-weight="800" fill="#183d44">Boztepe · Hirfanlı</text><text x="70" y="158" font-family="system-ui,sans-serif" font-size="26" fill="#345f66">Evren · açık su rüzgârını gözeten rota</text><text x="70" y="580" font-family="system-ui,sans-serif" font-size="22" fill="#eef7f7">Olta Atlası · genel erişim hassasiyeti</text></svg>