<svg xmlns="http://www.w3.org/2000/svg" viewBox="0 0 1200 675" role="img" aria-labelledby="t d"><title id="t">Çınarcık Sahili rota illüstrasyonu</title><desc id="d">Marmara kıyısında koylar, burunlar, taş sahil ve yürüyüş hattı.</desc><defs><linearGradient id="s" x1="0" x2="1"><stop stop-color="#0f6576"/><stop offset="1" stop-color="#7cc8d4"/></linearGradient></defs><rect width="1200" height="675" rx="36" fill="#f8f5ed"/><rect y="300" width="1200" height="375" fill="url(#s)"/><path d="M0 360C180 310 260 430 430 360s290-20 420 45 230-10 350-55v325H0z" fill="#e4c79d"/><path d="M0 385C170 340 275 455 435 390s275-10 420 45 225-15 345-65" fill="none" stroke="#fff" stroke-width="18" opacity=".75"/><path d="M110 270c120-95 245-95 370 0M730 260c95-75 185-70 275 15" fill="none" stroke="#0a3340" stroke-width="22" stroke-linecap="round"/><circle cx="180" cy="115" r="55" fill="#f6b44a"/><text x="75" y="590" fill="#0a3340" font-family="system-ui" font-size="58" font-weight="800">Çınarcık Sahili</text><text x="78" y="635" fill="#38555c" font-family="system-ui" font-size="26">Koylar · burunlar · taş ve kum geçişleri</text></svg>