<svg xmlns="http://www.w3.org/2000/svg" viewBox="0 0 1200 675" role="img" aria-labelledby="t d"><title id="t">Topuk Yaylası Göleti rota illüstrasyonu</title><desc id="d">Yüksek yayla göleti, iğne yapraklı orman ve kıyı planlama silüeti.</desc><rect width="1200" height="675" fill="#eef5f0"/><path d="M0 355 180 230 335 335 520 175 720 350 900 205 1200 365V675H0Z" fill="#a9bcae"/><path d="M0 430c160-55 290-38 430 5s315 52 480 2 210-49 290-10v248H0Z" fill="#b9ced3"/><path d="M0 500c210 44 380 21 560-12s405-12 640 38v149H0Z" fill="#dae8e4"/><g fill="#4d6658"><path d="m120 390 42-105 42 105h-25l30 74h-94l30-74z"/><path d="m1000 385 42-115 42 115h-25l32 80h-99l33-80z"/><path d="m870 405 36-92 36 92h-22l27 66h-82l27-66z"/></g><circle cx="690" cy="160" r="42" fill="#f2d9a1"/><text x="70" y="90" font-family="system-ui,sans-serif" font-size="42" font-weight="700" fill="#243b32">Topuk Yaylası Göleti</text><text x="72" y="132" font-family="system-ui,sans-serif" font-size="24" fill="#40594e">Kaynaşlı · Düzce · yüksek yayla göleti</text><path d="M560 470q70-70 140 0" fill="none" stroke="#314f47" stroke-width="10" stroke-linecap="round"/><circle cx="630" cy="470" r="8" fill="#314f47"/></svg>