<svg xmlns="http://www.w3.org/2000/svg" viewBox="0 0 1200 630" role="img" aria-labelledby="t d"><title id="t">İznik Gölü Kent Sahili</title><desc id="d">İznik kent sahili, göl, alçak tepeler ve zeytin siluetiyle özgün Olta Atlası rota çizimi.</desc><rect width="1200" height="630" fill="#edf4ed"/><path d="M0 320c170-90 310-75 470 5s340-40 730-5v310H0Z" fill="#77906b"/><path d="M0 355c240-34 410 20 650-4s370 15 550-5v284H0Z" fill="#4b96a8"/><path d="M0 520c220-15 415 24 615-4s385 15 585-1v115H0Z" fill="#d2c19a"/><g fill="#506f52"><circle cx="160" cy="462" r="33"/><rect x="152" y="460" width="16" height="60"/><circle cx="250" cy="450" r="29"/><rect x="243" y="450" width="14" height="55"/></g><path d="M850 500q40-112 104-28" fill="none" stroke="#31464a" stroke-width="7"/><path d="M954 472l24-66" stroke="#31464a" stroke-width="4"/><text x="62" y="92" font-family="system-ui" font-size="50" font-weight="700" fill="#204b50">İznik Gölü Kent Sahili</text><text x="64" y="135" font-family="system-ui" font-size="25" fill="#54706d">İznik · Bursa · Kent kıyısı ve güncel mevzuat kontrolü</text><rect x="64" y="173" width="370" height="54" rx="27" fill="#fff" opacity=".9"/><text x="88" y="208" font-family="system-ui" font-size="21" fill="#35555c">Plaj, iskele ve hassas sazlık rota dışında</text></svg>