<svg xmlns="http://www.w3.org/2000/svg" viewBox="0 0 1200 675" role="img" aria-labelledby="t d"><title id="t">Kandilli Sahili rota illüstrasyonu</title><desc id="d">Boğaz akıntısı, kıyı çizgisi, yalı silueti ve aktif iskele sınırını simgeleyen özgün Olta Atlası görseli.</desc><defs><linearGradient id="sky" x1="0" y1="0" x2="0" y2="1"><stop stop-color="#d8eef0"/><stop offset="1" stop-color="#f7efe1"/></linearGradient><linearGradient id="sea" x1="0" y1="0" x2="1" y2="1"><stop stop-color="#1b7282"/><stop offset="1" stop-color="#0a3340"/></linearGradient></defs><rect width="1200" height="675" fill="url(#sky)"/><path d="M0 300c170-26 330-18 505 8s366 22 695-12v379H0z" fill="url(#sea)"/><path d="M0 390c175-25 286 30 454 3 188-31 340 25 746-11" fill="none" stroke="#8dc8cf" stroke-width="10" opacity=".7"/><path d="M0 462c190-30 307 21 472 2 214-25 399 31 728-10" fill="none" stroke="#d5eef0" stroke-width="6" opacity=".55"/><path d="M78 300l235-88 140 63 95-42 144 67z" fill="#234a50" opacity=".9"/><g fill="#f1d3a0"><rect x="150" y="244" width="75" height="56" rx="4"/><rect x="238" y="230" width="92" height="70" rx="4"/><rect x="348" y="251" width="68" height="49" rx="4"/></g><g fill="#163b43"><rect x="164" y="259" width="14" height="18"/><rect x="190" y="259" width="14" height="18"/><rect x="258" y="248" width="16" height="20"/><rect x="287" y="248" width="16" height="20"/></g><path d="M730 305h260v16H730zM770 321v55m160-55v55" stroke="#e9f1eb" stroke-width="10"/><path d="M820 270v35" stroke="#f5b24b" stroke-width="8"/><circle cx="820" cy="263" r="10" fill="#f5b24b"/><path d="M1050 110c-78 52-133 116-164 194" fill="none" stroke="#f5b24b" stroke-width="5" stroke-linecap="round"/><path d="M1051 108c25 20 31 45 18 65" fill="none" stroke="#0a3340" stroke-width="7" stroke-linecap="round"/><text x="70" y="92" font-family="system-ui,sans-serif" font-size="46" font-weight="800" fill="#0a3340">Kandilli Sahili</text><text x="72" y="137" font-family="system-ui,sans-serif" font-size="24" font-weight="650" fill="#42666d">İstanbul Boğazı · genel kamusal kıyı</text><g transform="translate(72 548)"><rect width="470" height="72" rx="18" fill="#f7fbf8" opacity=".92"/><circle cx="42" cy="36" r="18" fill="#f5b24b"/><path d="M42 22v28m-14-14h28" stroke="#0a3340" stroke-width="5"/><text x="78" y="31" font-family="system-ui,sans-serif" font-size="18" font-weight="800" fill="#0a3340">İskele operasyon alanı rota dışıdır</text><text x="78" y="53" font-family="system-ui,sans-serif" font-size="15" fill="#49666b">Saha tabelası ve güvenli atış koridoru önceliklidir.</text></g></svg>