<svg xmlns="http://www.w3.org/2000/svg" viewBox="0 0 1200 630" role="img" aria-labelledby="t d"><title id="t">Hirfanlı Barajı Küçükburun rota görseli</title><desc id="d">Küçükburun amatör balıkçılık alanı için özgün rezervuar kıyı illüstrasyonu.</desc><rect width="1200" height="630" fill="#edf1e7"/><path d="M0 390c185 35 290 15 420-30 155-54 270-10 390 38 120 47 230 45 390 5v227H0z" fill="#79aeb3"/><path d="M0 485c245-42 350-110 520-58s327 95 680 33v170H0z" fill="#2f7784"/><path d="M270 365l125 22 75 82-112 32-142-42z" fill="#c9b47c"/><circle cx="315" cy="397" r="12" fill="#b94a3a"/><circle cx="675" cy="421" r="12" fill="#b94a3a"/><path d="M315 397C430 335 565 365 675 421" fill="none" stroke="#b94a3a" stroke-width="8" stroke-dasharray="16 12"/><text x="70" y="105" font-family="system-ui,sans-serif" font-size="48" font-weight="800" fill="#173c43">Küçükburun · Hirfanlı</text><text x="70" y="158" font-family="system-ui,sans-serif" font-size="26" fill="#315c63">Bala · resmî amatör balıkçılık alanı</text><text x="70" y="580" font-family="system-ui,sans-serif" font-size="22" fill="#eef7f7">Olta Atlası · sınır merkezli rota</text></svg>