<svg xmlns="http://www.w3.org/2000/svg" viewBox="0 0 1024 640" role="img" aria-labelledby="t d">
<title id="t">Bağırganlı Sahili</title><desc id="d">Kandıra • Kocaeli için Olta Atlası özgün rota görseli. Harita ekran görüntüsü değildir.</desc>
<defs><linearGradient id="g" x1="0" y1="0" x2="1" y2="1"><stop offset="0" stop-color="#eef5f2"/><stop offset="1" stop-color="#d6e9ef"/></linearGradient></defs>
<rect width="1024" height="640" rx="42" fill="url(#g)"/>
<path d="M 100 350 C 260 250, 410 480, 560 370 S 760 250, 920 390" fill="none" stroke="#285d66" stroke-width="18" stroke-linecap="round"/>
<path d="M 100 350 C 260 250, 410 480, 560 370 S 760 250, 920 390" fill="none" stroke="#ffffff" stroke-width="5" stroke-linecap="round" opacity=".92"/>
<circle cx="520" cy="370" r="18" fill="#173f49"/><circle cx="520" cy="370" r="7" fill="#ffffff"/>
<g fill="#173f49" font-family="system-ui, sans-serif"><text x="72" y="92" font-size="42" font-weight="700">Bağırganlı Sahili</text><text x="72" y="136" font-size="24">Kandıra • Kocaeli</text><text x="72" y="574" font-size="20">41.1341 • 30.0199 • Genel planlama görseli</text></g>
<path d="M820 92c42 0 76 26 76 58 0 38-45 66-94 46-16-7-29-18-36-31 11 2 23 0 31-7-17-8-27-22-27-37 0-16 19-29 50-29z" fill="#7ea7aa" opacity=".75"/>
</svg>