<svg xmlns="http://www.w3.org/2000/svg" width="1200" height="630" viewBox="0 0 1200 630" role="img" aria-labelledby="title desc"><title id="title">Karacaören Baraj Göleti rota görseli</title><desc id="desc">Düziçi kırsalında gölet, tarım dokusu, baraj çizgisi ve olta siluetinden oluşan özgün rota görseli.</desc><rect width="1200" height="630" fill="#f4eddd"/><path d="M0 400c174-67 330-29 486-64 190-43 355-23 714 36v258H0Z" fill="#c9d5b0"/><path d="M0 500c224-43 378-14 541-45 186-35 368 9 659-5v180H0Z" fill="#95bbc6"/><path d="M105 386h418l88 52H105Z" fill="#8b8067" opacity=".85"/><path d="M523 386v75" stroke="#5f5a4d" stroke-width="10"/><path d="M938 142v263m0-170 79 54m-79-22-66 50" fill="none" stroke="#35403b" stroke-width="12" stroke-linecap="round"/><path d="M1017 289c57 12 85 49 106 94" fill="none" stroke="#35403b" stroke-width="7" stroke-linecap="round"/><circle cx="1128" cy="390" r="10" fill="#35403b"/><text x="70" y="90" font-family="system-ui, sans-serif" font-size="48" font-weight="700" fill="#293630">Karacaören Baraj Göleti</text><text x="72" y="139" font-family="system-ui, sans-serif" font-size="28" fill="#4d5c55">Düziçi · Osmaniye · Yarbaşı/Karacaören</text><text x="72" y="588" font-family="system-ui, sans-serif" font-size="22" fill="#37463f">Olta Atlası · gövde, savak ve işletme alanları rota dışıdır</text></svg>