<svg xmlns="http://www.w3.org/2000/svg" width="1200" height="630" viewBox="0 0 1200 630" role="img" aria-labelledby="title desc"><title id="title">Sofular Göleti rota görseli</title><desc id="desc">Kuluncak platosunda Sofular Göleti, tarım dokusu ve genel kıyı planlamasını simgeleyen özgün Olta Atlası görseli.</desc><rect width="1200" height="630" fill="#f2efe3"/><circle cx="1014" cy="119" r="49" fill="#efc879"/><path d="M0 338 138 252l132 70 128-126 134 93 131-80 144 112 126-72 145 82 142-55v354H0Z" fill="#bfc7aa"/><path d="M0 445c170-37 330-14 463 18 138 33 275 28 403-4 116-29 222-25 334-7v178H0Z" fill="#79aeb1"/><path d="M73 419 251 377m-123 88 177-42m563 4 157-37m-100 84 159-41" stroke="#d7c996" stroke-width="10" stroke-linecap="round"/><path d="M925 205v209m0-114 65 42m-65-15-57 42" fill="none" stroke="#2e4440" stroke-width="11" stroke-linecap="round"/><text x="68" y="88" font-family="system-ui, sans-serif" font-size="49" font-weight="760" fill="#203b3b">Sofular Göleti</text><text x="70" y="139" font-family="system-ui, sans-serif" font-size="27" fill="#50645f">Malatya · Kuluncak · Güven C genel yaklaşım</text><text x="70" y="590" font-family="system-ui, sans-serif" font-size="22" fill="#38504e">Olta Atlası · son kıyı geçişi ve tarım parselleri yerinde doğrulanır</text></svg>