<svg xmlns="http://www.w3.org/2000/svg" viewBox="0 0 1200 675" role="img" aria-labelledby="title desc"><title id="title">Kıyıda alan paylaşımı ve atış etiği</title><desc id="desc">Olta Atlası için özgün çizimde iki balıkçı, güvenli atış koridoru, yaya yolu ve kıyıdaki ortak kullanım alanı gösteriliyor.</desc><defs><linearGradient id="sky" x1="0" y1="0" x2="0" y2="1"><stop stop-color="#dff3f2"/><stop offset="1" stop-color="#f8f5ed"/></linearGradient><linearGradient id="sea" x1="0" y1="0" x2="1" y2="0"><stop stop-color="#12576a"/><stop offset="1" stop-color="#0a3340"/></linearGradient></defs><rect width="1200" height="675" rx="36" fill="url(#sky)"/><rect y="430" width="1200" height="245" fill="#d9c99d"/><path d="M0 390c170-42 330 20 500-9s316-73 700-19v162H0z" fill="url(#sea)"/><path d="M0 520h1200" stroke="#a8895e" stroke-width="10" opacity=".35"/><path d="M130 520h940" stroke="#f8f5ed" stroke-width="9" stroke-dasharray="20 18" opacity=".9"/><g transform="translate(250 325)"><circle cx="0" cy="0" r="30" fill="#0b2630"/><path d="M0 32v120M0 68l-52 52M0 74l62 32M0 152l-44 88M0 152l52 86" fill="none" stroke="#0b2630" stroke-width="18" stroke-linecap="round"/><path d="M62 106c130-150 250-160 390-36" fill="none" stroke="#f6b44a" stroke-width="8" stroke-linecap="round"/><path d="M130 92c72-62 140-68 205-35" fill="none" stroke="#16714d" stroke-width="5" stroke-dasharray="14 12"/><path d="M130 110c72 62 140 68 205 35" fill="none" stroke="#16714d" stroke-width="5" stroke-dasharray="14 12"/><text x="184" y="10" fill="#16714d" font-family="system-ui,sans-serif" font-size="26" font-weight="800">GÜVENLİ ATIŞ KORİDORU</text></g><g transform="translate(875 360)"><circle cx="0" cy="0" r="26" fill="#12576a"/><path d="M0 28v95M0 65l-42 38M0 68l44 34M0 123l-34 74M0 123l39 72" fill="none" stroke="#12576a" stroke-width="16" stroke-linecap="round"/><path d="M-48 70l-95 50" stroke="#12576a" stroke-width="8" stroke-linecap="round"/></g><g transform="translate(1030 520)"><circle cx="0" cy="0" r="22" fill="#a84a3f"/><path d="M0 24v68M0 48l-30 30M0 48l30 30M0 92l-26 58M0 92l26 58" fill="none" stroke="#a84a3f" stroke-width="13" stroke-linecap="round"/></g><g transform="translate(86 78)"><rect width="520" height="150" rx="24" fill="#ffffff" opacity=".94"/><text x="34" y="58" fill="#0a3340" font-family="system-ui,sans-serif" font-size="42" font-weight="900">Kıyıda Alan Paylaşımı</text><text x="34" y="108" fill="#12576a" font-family="system-ui,sans-serif" font-size="31" font-weight="800">ve Atış Etiği</text><text x="34" y="138" fill="#5b6c70" font-family="system-ui,sans-serif" font-size="19">Atış koridoru · geçiş yolu · diğer su kullanıcıları</text></g><g transform="translate(870 86)"><circle cx="90" cy="90" r="72" fill="#f6b44a" opacity=".25"/><path d="M30 92h120M90 32v120" stroke="#0a3340" stroke-width="10" stroke-linecap="round"/><circle cx="90" cy="92" r="18" fill="#0a3340"/></g></svg>